<svg width="429.00000000000006" height="94.08090159459007" viewBox="0 0 375 82.23855034492138" class="css-1j8o68f"><defs id="SvgjsDefs1033"></defs><g id="SvgjsG1034" featurekey="symbolFeature-0" transform="matrix(1.0414064580675628,0,0,1.0414064580675628,-10.414063587513036,-10.913939203830013)" fill="#2dadfd"><defs xmlns="http://www.w3.org/2000/svg"></defs><title xmlns="http://www.w3.org/2000/svg"></title><path xmlns="http://www.w3.org/2000/svg" d="M85.32,62.07A68.22,68.22,0,0,1,79,66.23c-.54.31-1.08.62-1.63.92l-.2.11-.11,0,0,0h0l-.07,0-.1.05c-.14.08-.32.17-.52.26a14,14,0,0,1-1.32.52c-.48.17-1,.31-1.48.45a30.59,30.59,0,0,1-3.14.65c-1.08.18-2.19.31-3.33.41-2.27.2-4.65.28-7.16.32s-5.15.06-7.92.14c-1.38,0-2.8.11-4.25.21l-2.19.18c-.74.07-1.48.16-2.25.27a61,61,0,0,0-9,2,90.87,90.87,0,0,0-8.63,3c-1.39.57-2.76,1.16-4.12,1.77a39.89,39.89,0,0,0,9.58,7.16c2-1,4-2,6-2.83a48.67,48.67,0,0,1,7.14-2.39c.57-.14,1.17-.28,1.77-.4s1.2-.23,1.8-.33c1.2-.21,2.4-.38,3.59-.53,2.38-.31,4.73-.53,7-.79s4.53-.52,6.73-.9c1.09-.2,2.18-.42,3.26-.69a29.78,29.78,0,0,0,3.27-1c.56-.2,1.12-.43,1.7-.69l.89-.44c.3-.15.62-.33,1-.53a11.4,11.4,0,0,0,1.08-.7c.1-.06.2-.15.31-.22L77,72.1l.09-.07.07-.06.1-.09.19-.18L79,70.22q3.14-3,6.22-6.08c1-1.07,2.09-2.14,3.13-3.23.16-.52.3-1,.43-1.57Q87.07,60.78,85.32,62.07Z" style="fill-rule: evenodd;"></path><path xmlns="http://www.w3.org/2000/svg" d="M80.24,49.11l-1.68-.06-.42,0-.21,0h-.16c-.19,0-.42,0-.65,0-1,0-2-.13-3.14-.26-2.21-.26-4.54-.66-6.94-1.12s-4.87-1-7.43-1.54-5.19-1.11-7.9-1.64c-1.36-.26-2.73-.52-4.13-.76l-2.12-.35-1.06-.17L43.3,43c-2.94-.4-5.92-.63-8.95-.74s-6.09-.09-9.19,0-6.25.33-9.43.61c-1.75.15-3.51.33-5.27.51a40.83,40.83,0,0,0-.46,6.1,41.64,41.64,0,0,0,.31,5c2.25-.38,4.44-.75,6.61-1.08,3-.48,6-.9,8.93-1.24s5.77-.59,8.56-.72,5.52-.19,8.15-.08l1,0,1,0,2,.12,3.92.31c2.59.23,5.13.49,7.62.73s4.93.48,7.33.65,4.74.28,7.12.25c1.2,0,2.39-.06,3.72-.21.34,0,.68-.08,1.06-.15l.14,0h.07l.06,0,.21-.06.43-.11,1.7-.46c2.26-.6,4.46-1.21,6.61-1.8l3.47-1v-.24c0-.24,0-.48,0-.72-1.06.11-2.15.19-3.24.24C84.63,49.15,82.47,49.17,80.24,49.11Z" style="fill-rule: evenodd;"></path><path xmlns="http://www.w3.org/2000/svg" d="M79.08,74.93c-.5.46-1,.91-1.52,1.35l-.19.17-.08.07,0,0-.07.06-.09.08-.46.37-.58.4-.63.4c-.44.26-.9.51-1.37.75-.94.47-1.94.89-3,1.28s-2.08.73-3.17,1c-2.17.64-4.46,1.18-6.86,1.71s-4.92,1-7.51,1.58c-1.29.28-2.61.56-3.93.87-.67.15-1.34.3-2,.47l-1,.24-1,.27c-2.11.56-4.21,1.22-6.28,2a40.05,40.05,0,0,0,45.6-19Q82,72.23,79.08,74.93Z" style="fill-rule: evenodd;"></path><path xmlns="http://www.w3.org/2000/svg" d="M80.29,26.58l.77.66.78.61,1.56,1.24c.63.5,1.25,1,1.87,1.55A40.08,40.08,0,0,0,58.79,10.48,218.06,218.06,0,0,1,77.17,24Z" style="fill-rule: evenodd;"></path><path xmlns="http://www.w3.org/2000/svg" d="M82.65,33.53l-1.57-1.14c-.26-.18-.52-.38-.79-.56l-.8-.51c-1.07-.68-2.15-1.36-3.24-2A266.39,266.39,0,0,0,48.52,14.44q-4.16-1.92-8.41-3.69A39.84,39.84,0,0,0,27,16.82Q37.06,19.4,46.5,22.47a301,301,0,0,1,29,11.08c1.12.5,2.23,1,3.33,1.51l.83.38.82.32c.56.21,1.1.43,1.65.66q3.27,1.32,6.39,2.84l.19.1c-.16-.63-.34-1.24-.53-1.85Q85.44,35.56,82.65,33.53Z" style="fill-rule: evenodd;"></path><path xmlns="http://www.w3.org/2000/svg" d="M87.76,43.12c-2.08-.66-4.21-1.39-6.38-2.17l-1.64-.59-.82-.3-.81-.24-3.37-1c-4.56-1.37-9.33-2.81-14.28-4.27-2.48-.72-5-1.46-7.58-2.19L49,31.26l-2-.54-1-.27-1-.26c-1.37-.32-2.72-.63-4.09-.93l-4.13-.89q-4.15-.87-8.45-1.69c-3.21-.61-6.47-1.21-9.78-1.77a39.76,39.76,0,0,0-5.79,10.22q7.17.66,14,1.38c3,.31,5.86.63,8.72,1l4.24.5c1.39.16,2.78.33,4.12.51l1,.13,1,.15,2,.32,4,.65L59.44,41c5.07.83,9.93,1.62,14.6,2.32l3.48.5.88.12c.28,0,.57,0,.85.05l1.69.1q3.36.21,6.56.52l2.23.23-.15-1.15C89,43.51,88.37,43.32,87.76,43.12Z" style="fill-rule: evenodd;"></path><path xmlns="http://www.w3.org/2000/svg" d="M85.94,55.23a63.91,63.91,0,0,1-6.49,2.12l-1.68.43-.42.1-.11,0,0,0-.06,0h-.06l-.58.15c-.44.09-.92.17-1.43.24s-1,.12-1.56.16c-1.08.09-2.19.12-3.32.13s-2.31,0-3.48-.08c-2.38-.11-4.85-.31-7.41-.54s-5.23-.5-8-.72c-1.39-.12-2.79-.22-4.22-.31-.71,0-1.43-.09-2.16-.12l-1.09,0-1.13,0a75.12,75.12,0,0,0-9.21.4c-3.09.32-6.18.82-9.28,1.44S18,60,15,60.82l-3.08.85a40.21,40.21,0,0,0,4.88,10.11l1.76-.65c2.75-1,5.48-1.9,8.19-2.7s5.42-1.47,8.08-2a66.5,66.5,0,0,1,7.81-1.08l.95-.06,1,0c.65,0,1.3-.06,1.95-.09,1.29,0,2.57-.08,3.84-.1,2.54,0,5,0,7.45-.08s4.79-.08,7.12-.22c1.17-.07,2.32-.16,3.46-.29s2.3-.3,3.47-.52c.59-.12,1.18-.25,1.79-.4s1.23-.35,1.92-.59c.34-.12.7-.26,1.09-.43l.15-.07.16-.07.15-.07.11-.06.42-.24,1.66-1c2.21-1.3,4.38-2.61,6.5-3.95q2-1.24,3.91-2.51l.12-1C88.53,54.17,87.25,54.72,85.94,55.23Z" style="fill-rule: evenodd;"></path></g><g id="SvgjsG1035" featurekey="textGroupContainer" transform="matrix(1,0,0,1,103,12)" fill="#d2defb"><rect xmlns="http://www.w3.org/2000/svg" y="0" height="1" width="1" opacity="0"></rect><rect xmlns="http://www.w3.org/2000/svg" y="56.5" x="218" width="54" height="2"></rect></g><g id="SvgjsG1036" featurekey="nameFeature-0" transform="matrix(1.51025178515818,0,0,1.51025178515818,105.81877139890396,-7.250309553971217)" fill="#d2defb"><path d="M6.4 11.440000000000001 l4.52 19.44 l0.08 0 l4.96 -19.44 l5.88 0 l4.88 19.68 l0.08 0 l4.68 -19.68 l6.16 0 l-7.68 28.56 l-6.24 0 l-4.84 -19.44 l-0.08 0 l-4.76 19.44 l-6.36 0 l-7.56 -28.56 l6.28 0 z M45.892999999999994 11.440000000000001 l0 28.56 l-6.28 0 l0 -28.56 l6.28 0 z M65.90599999999999 11.440000000000001 c2.4 0 4.3936 0.74 5.98 2.22 s2.38 3.3667 2.38 5.66 c0 3.5733 -1.5067 5.96 -4.52 7.16 l0 0.08 c1.0133 0.29332 1.8066 0.78 2.38 1.46 s1.0066 1.4733 1.3 2.38 s0.48 2.36 0.56 4.36 c0.10668 2.6133 0.48 4.36 1.12 5.24 l-6.28 0 c-0.34668 -0.88 -0.61336 -2.5333 -0.80004 -4.96 c-0.21332 -2.56 -0.68 -4.2332 -1.4 -5.02 s-1.8933 -1.18 -3.52 -1.18 l-6.32 0 l0 11.16 l-6.28 0 l0 -28.56 l15.4 0 z M63.705999999999996 24.36 c1.3333 0 2.38 -0.3 3.14 -0.9 s1.14 -1.66 1.14 -3.18 c0 -1.44 -0.37332 -2.46 -1.12 -3.06 s-1.8134 -0.9 -3.2 -0.9 l-6.88 0 l0 8.04 l6.92 0 z M99.839 11.440000000000001 l0 5.28 l-15.08 0 l0 6.12 l13.84 0 l0 4.88 l-13.84 0 l0 7 l15.4 0 l0 5.28 l-21.68 0 l0 -28.56 l21.36 0 z M114.892 26.64 l0 4.88 l-12.04 0 l0 -4.88 l12.04 0 z M131.665 10.760000000000002 c3.3333 0 6.1332 0.94 8.4 2.82 s3.5734 4.3668 3.92 7.46 l-6.08 0 c-0.21332 -1.4133 -0.92 -2.6 -2.12 -3.56 s-2.5733 -1.44 -4.12 -1.44 c-2.4533 0 -4.36 0.88 -5.72 2.64 s-2.04 4.1468 -2.04 7.16 c0 2.9333 0.68668 5.26 2.06 6.98 s3.2733 2.58 5.7 2.58 c1.8133 0 3.28 -0.55332 4.4 -1.66 s1.8133 -2.6867 2.08 -4.74 l6.08 0 c-0.32 3.6267 -1.62 6.48 -3.9 8.56 s-5.1668 3.12 -8.66 3.12 c-4.1868 0 -7.5732 -1.38 -10.16 -4.14 s-3.88 -6.3268 -3.88 -10.7 c0 -4.4268 1.28 -8.0468 3.84 -10.86 s5.96 -4.22 10.2 -4.22 z M153.878 11.440000000000001 l0 23.28 l13.92 0 l0 5.28 l-20.2 0 l0 -28.56 l6.28 0 z M176.69099999999997 11.440000000000001 l0 28.56 l-6.28 0 l0 -28.56 l6.28 0 z"></path></g><g id="SvgjsG1037" featurekey="sloganFeature-0" transform="matrix(0.6240690788744419,0,0,0.6240690788744419,105.4258568461918,60.317990292069645)" fill="#d2defb"><path d="M10.54 7.18 q-1.14 -0.46 -2.38 -0.46 q-1.74 0 -3.21 0.84 t-2.33 2.28 t-0.86 3.14 t0.86 3.14 t2.33 2.29 t3.21 0.85 q1.24 0 2.37 -0.45 t2.03 -1.27 l0.52 0.58 q-0.98 0.92 -2.27 1.44 t-2.67 0.52 q-1.96 0 -3.62 -0.95 t-2.63 -2.58 t-0.97 -3.55 t0.97 -3.55 t2.63 -2.58 t3.62 -0.95 q1.38 0 2.65 0.5 t2.27 1.4 l-0.5 0.64 q-0.88 -0.82 -2.02 -1.28 z M18.7975 6.02 l0.84 0 l0 13.16 l6.22 0 l0 0.82 l-7.06 0 l0 -13.98 z M31.155 6.02 l0.84 0 l0 13.98 l-0.84 0 l0 -13.98 z M45.050000000000004 6.02 l10.28 0 l0 0.82 l-4.72 0 l0 13.16 l-0.84 0 l0 -13.16 l-4.72 0 l0 -0.82 z M69.69749999999999 6.869999999999999 q1.67 0.95 2.64 2.57 t0.97 3.54 t-0.97 3.55 t-2.64 2.59 t-3.63 0.96 t-3.63 -0.96 t-2.64 -2.59 t-0.97 -3.55 t0.97 -3.54 t2.64 -2.57 t3.63 -0.95 t3.63 0.95 z M62.8775 7.58 q-1.47 0.84 -2.33 2.27 t-0.86 3.13 t0.86 3.14 t2.33 2.29 t3.19 0.85 t3.19 -0.85 t2.33 -2.29 t0.86 -3.14 t-0.86 -3.13 t-2.33 -2.27 t-3.19 -0.84 t-3.19 0.84 z M88.35499999999999 6.869999999999999 q1.67 0.95 2.64 2.57 t0.97 3.54 t-0.97 3.55 t-2.64 2.59 t-3.63 0.96 t-3.63 -0.96 t-2.64 -2.59 t-0.97 -3.55 t0.97 -3.54 t2.64 -2.57 t3.63 -0.95 t3.63 0.95 z M81.535 7.58 q-1.47 0.84 -2.33 2.27 t-0.86 3.13 t0.86 3.14 t2.33 2.29 t3.19 0.85 t3.19 -0.85 t2.33 -2.29 t0.86 -3.14 t-0.86 -3.13 t-2.33 -2.27 t-3.19 -0.84 t-3.19 0.84 z M97.6225 6.02 l0.84 0 l0 13.16 l6.22 0 l0 0.82 l-7.06 0 l0 -13.98 z M118.0575 6.02 l8.42 0 l0 0.82 l-7.58 0 l0 6.04 l6.72 0 l0 0.84 l-6.72 0 l0 6.28 l-0.84 0 l0 -13.98 z M140.825 6.869999999999999 q1.67 0.95 2.64 2.57 t0.97 3.54 t-0.97 3.55 t-2.64 2.59 t-3.63 0.96 t-3.63 -0.96 t-2.64 -2.59 t-0.97 -3.55 t0.97 -3.54 t2.64 -2.57 t3.63 -0.95 t3.63 0.95 z M134.005 7.58 q-1.47 0.84 -2.33 2.27 t-0.86 3.13 t0.86 3.14 t2.33 2.29 t3.19 0.85 t3.19 -0.85 t2.33 -2.29 t0.86 -3.14 t-0.86 -3.13 t-2.33 -2.27 t-3.19 -0.84 t-3.19 0.84 z M159.5125 20 l-3.3 -4.74 q-0.5 0.08 -1.18 0.08 l-4.1 0 l0 4.66 l-0.84 0 l0 -13.98 l4.94 0 q2.6 0 4.01 1.2 t1.41 3.4 q0 1.78 -0.88 2.93 t-2.56 1.57 l3.5 4.88 l-1 0 z M155.0525 14.52 q2.2 0 3.39 -1 t1.19 -2.88 q0 -1.84 -1.19 -2.82 t-3.39 -0.98 l-4.12 0 l0 7.68 l4.12 0 z M183.84750000000003 7.220000000000001 q1.4 1.2 1.4 3.4 q0 2.26 -1.4 3.49 t-3.98 1.23 l-4.08 0 l0 4.66 l-0.84 0 l0 -13.98 l4.92 0 q2.58 0 3.98 1.2 z M183.2475 13.51 q1.2 -1.01 1.2 -2.87 q0 -1.84 -1.2 -2.82 t-3.4 -0.98 l-4.06 0 l0 7.68 l4.06 0 q2.2 0 3.4 -1.01 z M199.985 20 l-3.3 -4.74 q-0.5 0.08 -1.18 0.08 l-4.1 0 l0 4.66 l-0.84 0 l0 -13.98 l4.94 0 q2.6 0 4.01 1.2 t1.41 3.4 q0 1.78 -0.88 2.93 t-2.56 1.57 l3.5 4.88 l-1 0 z M195.52500000000003 14.52 q2.2 0 3.39 -1 t1.19 -2.88 q0 -1.84 -1.19 -2.82 t-3.39 -0.98 l-4.12 0 l0 7.68 l4.12 0 z M216.73250000000002 6.869999999999999 q1.67 0.95 2.64 2.57 t0.97 3.54 t-0.97 3.55 t-2.64 2.59 t-3.63 0.96 t-3.63 -0.96 t-2.64 -2.59 t-0.97 -3.55 t0.97 -3.54 t2.64 -2.57 t3.63 -0.95 t3.63 0.95 z M209.91250000000002 7.58 q-1.47 0.84 -2.33 2.27 t-0.86 3.13 t0.86 3.14 t2.33 2.29 t3.19 0.85 t3.19 -0.85 t2.33 -2.29 t0.86 -3.14 t-0.86 -3.13 t-2.33 -2.27 t-3.19 -0.84 t-3.19 0.84 z M234.14000000000001 7.18 q-1.14 -0.46 -2.38 -0.46 q-1.74 0 -3.21 0.84 t-2.33 2.28 t-0.86 3.14 t0.86 3.14 t2.33 2.29 t3.21 0.85 q1.24 0 2.37 -0.45 t2.03 -1.27 l0.52 0.58 q-0.98 0.92 -2.27 1.44 t-2.67 0.52 q-1.96 0 -3.62 -0.95 t-2.63 -2.58 t-0.97 -3.55 t0.97 -3.55 t2.63 -2.58 t3.62 -0.95 q1.38 0 2.65 0.5 t2.27 1.4 l-0.5 0.64 q-0.88 -0.82 -2.02 -1.28 z M242.39750000000004 6.02 l9.02 0 l0 0.82 l-8.18 0 l0 5.58 l7.28 0 l0 0.84 l-7.28 0 l0 5.92 l8.44 0 l0 0.82 l-9.28 0 l0 -13.98 z M263.27500000000003 7.039999999999999 q-0.98 -0.26 -1.92 -0.26 q-1.66 0 -2.66 0.66 t-1 1.76 q0 0.96 0.51 1.56 t1.26 0.93 t2.03 0.73 q1.42 0.42 2.3 0.82 t1.48 1.18 t0.6 2.02 q0 1.08 -0.6 1.91 t-1.7 1.28 t-2.56 0.45 q-1.38 0 -2.72 -0.56 t-2.26 -1.48 l0.44 -0.74 q0.84 0.9 2.08 1.41 t2.48 0.51 q1.82 0 2.88 -0.75 t1.06 -2.01 q0 -0.98 -0.52 -1.59 t-1.29 -0.95 t-2.05 -0.72 q-1.44 -0.44 -2.29 -0.83 t-1.44 -1.15 t-0.59 -1.98 q0 -1 0.57 -1.76 t1.62 -1.17 t2.41 -0.41 q1.06 0 2.13 0.31 t1.87 0.83 l-0.38 0.76 q-0.76 -0.5 -1.74 -0.76 z M277.59250000000003 7.039999999999999 q-0.98 -0.26 -1.92 -0.26 q-1.66 0 -2.66 0.66 t-1 1.76 q0 0.96 0.51 1.56 t1.26 0.93 t2.03 0.73 q1.42 0.42 2.3 0.82 t1.48 1.18 t0.6 2.02 q0 1.08 -0.6 1.91 t-1.7 1.28 t-2.56 0.45 q-1.38 0 -2.72 -0.56 t-2.26 -1.48 l0.44 -0.74 q0.84 0.9 2.08 1.41 t2.48 0.51 q1.82 0 2.88 -0.75 t1.06 -2.01 q0 -0.98 -0.52 -1.59 t-1.29 -0.95 t-2.05 -0.72 q-1.44 -0.44 -2.29 -0.83 t-1.44 -1.15 t-0.59 -1.98 q0 -1 0.57 -1.76 t1.62 -1.17 t2.41 -0.41 q1.06 0 2.13 0.31 t1.87 0.83 l-0.38 0.76 q-0.76 -0.5 -1.74 -0.76 z M302.91 6.02 l0.9 0 l-4.74 13.98 l-0.86 0 l-4.26 -12.86 l-4.28 12.86 l-0.86 0 l-4.74 -13.98 l0.94 0 l4.26 13.02 l4.26 -13.02 l0.86 0 l4.28 13.02 z M308.7275 6.02 l0.84 0 l0 13.98 l-0.84 0 l0 -13.98 z M326.12500000000006 20 l-3.3 -4.74 q-0.5 0.08 -1.18 0.08 l-4.1 0 l0 4.66 l-0.84 0 l0 -13.98 l4.94 0 q2.6 0 4.01 1.2 t1.41 3.4 q0 1.78 -0.88 2.93 t-2.56 1.57 l3.5 4.88 l-1 0 z M321.6650000000001 14.52 q2.2 0 3.39 -1 t1.19 -2.88 q0 -1.84 -1.19 -2.82 t-3.39 -0.98 l-4.12 0 l0 7.68 l4.12 0 z M333.4825 6.02 l9.02 0 l0 0.82 l-8.18 0 l0 5.58 l7.28 0 l0 0.84 l-7.28 0 l0 5.92 l8.44 0 l0 0.82 l-9.28 0 l0 -13.98 z"></path></g></svg>